<svg width="32" height="32" viewBox="0 0 32 32" fill="none" xmlns="http://www.w3.org/2000/svg">
  <!-- Background -->
  <rect width="32" height="32" rx="4" fill="url(#gradient)"/>
  
  <!-- JSON Opening brace { -->
  <path d="M8 9C7.5 9 7 9.5 7 10V12C7 12.5 6.5 13 6 13V15C6.5 15 7 15.5 7 16V18C7 18.5 7.5 19 8 19H9V17H8V16V12V11H9V9H8Z" fill="white" stroke="none"/>
  
  <!-- JSON Closing brace } -->
  <path d="M24 9C24.5 9 25 9.5 25 10V12C25 12.5 25.5 13 26 13V15C25.5 15 25 15.5 25 16V18C25 18.5 24.5 19 24 19H23V17H24V16V12V11H23V9H24Z" fill="white" stroke="none"/>
  
  <!-- Center JSON symbol - stylized quotation marks and colon -->
  <rect x="11" y="11" width="2" height="6" rx="1" fill="white" opacity="0.9"/>
  <rect x="14" y="13" width="1" height="1" rx="0.5" fill="white"/>
  <rect x="14" y="15" width="1" height="1" rx="0.5" fill="white"/>
  <rect x="17" y="11" width="2" height="6" rx="1" fill="white" opacity="0.9"/>
  
  <!-- Additional small dots for data representation -->
  <circle cx="12" cy="22" r="1" fill="white" opacity="0.7"/>
  <circle cx="16" cy="23" r="1" fill="white" opacity="0.7"/>
  <circle cx="20" cy="22" r="1" fill="white" opacity="0.7"/>
  
  <defs>
    <linearGradient id="gradient" x1="0%" y1="0%" x2="100%" y2="100%">
      <stop offset="0%" style="stop-color:#6366F1"/>
      <stop offset="100%" style="stop-color:#8B5CF6"/>
    </linearGradient>
  </defs>
</svg>